<svg id="visual" viewBox="0 0 900 600" width="900" height="700" xmlns="http://www.w3.org/2000/svg" xmlns:xlink="http://www.w3.org/1999/xlink" version="1.1"><rect x="0" y="0" width="900" height="600" fill="#000d17"></rect><path d="M0 373L18.8 375.8C37.7 378.7 75.3 384.3 112.8 380.3C150.3 376.3 187.7 362.7 225.2 357.3C262.7 352 300.3 355 337.8 366.3C375.3 377.7 412.7 397.3 450.2 405.2C487.7 413 525.3 409 562.8 407.5C600.3 406 637.7 407 675.2 414.8C712.7 422.7 750.3 437.3 787.8 449.8C825.3 462.3 862.7 472.7 881.3 477.8L900 483L900 601L881.3 601C862.7 601 825.3 601 787.8 601C750.3 601 712.7 601 675.2 601C637.7 601 600.3 601 562.8 601C525.3 601 487.7 601 450.2 601C412.7 601 375.3 601 337.8 601C300.3 601 262.7 601 225.2 601C187.7 601 150.3 601 112.8 601C75.3 601 37.7 601 18.8 601L0 601Z" fill="#012127"></path><path d="M0 496L18.8 478.8C37.7 461.7 75.3 427.3 112.8 412.8C150.3 398.3 187.7 403.7 225.2 415.8C262.7 428 300.3 447 337.8 457.2C375.3 467.3 412.7 468.7 450.2 460.3C487.7 452 525.3 434 562.8 422C600.3 410 637.7 404 675.2 400.8C712.7 397.7 750.3 397.3 787.8 413.8C825.3 430.3 862.7 463.7 881.3 480.3L900 497L900 601L881.3 601C862.7 601 825.3 601 787.8 601C750.3 601 712.7 601 675.2 601C637.7 601 600.3 601 562.8 601C525.3 601 487.7 601 450.2 601C412.7 601 375.3 601 337.8 601C300.3 601 262.7 601 225.2 601C187.7 601 150.3 601 112.8 601C75.3 601 37.7 601 18.8 601L0 601Z" fill="#003043"></path><path d="M0 438L18.8 450C37.7 462 75.3 486 112.8 495C150.3 504 187.7 498 225.2 497C262.7 496 300.3 500 337.8 493.3C375.3 486.7 412.7 469.3 450.2 466.5C487.7 463.7 525.3 475.3 562.8 487C600.3 498.7 637.7 510.3 675.2 508.2C712.7 506 750.3 490 787.8 481.8C825.3 473.7 862.7 473.3 881.3 473.2L900 473L900 601L881.3 601C862.7 601 825.3 601 787.8 601C750.3 601 712.7 601 675.2 601C637.7 601 600.3 601 562.8 601C525.3 601 487.7 601 450.2 601C412.7 601 375.3 601 337.8 601C300.3 601 262.7 601 225.2 601C187.7 601 150.3 601 112.8 601C75.3 601 37.7 601 18.8 601L0 601Z" fill="#003d61"></path><path d="M0 505L18.8 507.5C37.7 510 75.3 515 112.8 511.7C150.3 508.3 187.7 496.7 225.2 500.8C262.7 505 300.3 525 337.8 523.8C375.3 522.7 412.7 500.3 450.2 496C487.7 491.7 525.3 505.3 562.8 510.3C600.3 515.3 637.7 511.7 675.2 515.3C712.7 519 750.3 530 787.8 531.2C825.3 532.3 862.7 523.7 881.3 519.3L900 515L900 601L881.3 601C862.7 601 825.3 601 787.8 601C750.3 601 712.7 601 675.2 601C637.7 601 600.3 601 562.8 601C525.3 601 487.7 601 450.2 601C412.7 601 375.3 601 337.8 601C300.3 601 262.7 601 225.2 601C187.7 601 150.3 601 112.8 601C75.3 601 37.7 601 18.8 601L0 601Z" fill="#004880"></path><path d="M0 541L18.8 537.8C37.7 534.7 75.3 528.3 112.8 528.2C150.3 528 187.7 534 225.2 538.5C262.7 543 300.3 546 337.8 543.7C375.3 541.3 412.7 533.7 450.2 533.7C487.7 533.7 525.3 541.3 562.8 541.5C600.3 541.7 637.7 534.3 675.2 536.2C712.7 538 750.3 549 787.8 549.8C825.3 550.7 862.7 541.3 881.3 536.7L900 532L900 601L881.3 601C862.7 601 825.3 601 787.8 601C750.3 601 712.7 601 675.2 601C637.7 601 600.3 601 562.8 601C525.3 601 487.7 601 450.2 601C412.7 601 375.3 601 337.8 601C300.3 601 262.7 601 225.2 601C187.7 601 150.3 601 112.8 601C75.3 601 37.7 601 18.8 601L0 601Z" fill="#08519e"></path></svg>