<svg id="visual" viewBox="0 0 900 600" width="900" height="600" xmlns="http://www.w3.org/2000/svg" xmlns:xlink="http://www.w3.org/1999/xlink" version="1.1"><rect x="0" y="0" width="900" height="600" fill="#000821"></rect><path d="M686 0L522 0L522 60L541 60L541 120L375 120L375 180L377 180L377 240L364 240L364 300L412 300L412 360L690 360L690 420L684 420L684 480L753 480L753 540L536 540L536 600L0 600L0 540L0 540L0 480L0 480L0 420L0 420L0 360L0 360L0 300L0 300L0 240L0 240L0 180L0 180L0 120L0 120L0 60L0 60L0 0L0 0Z" fill="#001122"></path><path d="M632 0L663 0L663 60L496 60L496 120L340 120L340 180L646 180L646 240L287 240L287 300L648 300L648 360L524 360L524 420L363 420L363 480L473 480L473 540L472 540L472 600L0 600L0 540L0 540L0 480L0 480L0 420L0 420L0 360L0 360L0 300L0 300L0 240L0 240L0 180L0 180L0 120L0 120L0 60L0 60L0 0L0 0Z" fill="#01172e"></path><path d="M349 0L483 0L483 60L274 60L274 120L483 120L483 180L266 180L266 240L268 240L268 300L390 300L390 360L464 360L464 420L434 420L434 480L335 480L335 540L371 540L371 600L0 600L0 540L0 540L0 480L0 480L0 420L0 420L0 360L0 360L0 300L0 300L0 240L0 240L0 180L0 180L0 120L0 120L0 60L0 60L0 0L0 0Z" fill="#001d3a"></path><path d="M325 0L84 0L84 60L139 60L139 120L130 120L130 180L75 180L75 240L224 240L224 300L267 300L267 360L225 360L225 420L243 420L243 480L51 480L51 540L307 540L307 600L0 600L0 540L0 540L0 480L0 480L0 420L0 420L0 360L0 360L0 300L0 300L0 240L0 240L0 180L0 180L0 120L0 120L0 60L0 60L0 0L0 0Z" fill="#002246"></path></svg>