<svg id="visual" viewBox="0 0 900 600" width="900" height="600" xmlns="http://www.w3.org/2000/svg" xmlns:xlink="http://www.w3.org/1999/xlink" version="1.1"><rect x="0" y="0" width="900" height="600" fill="#02223a"></rect><defs><linearGradient id="grad1_0" x1="33.3%" y1="100%" x2="100%" y2="0%"><stop offset="20%" stop-color="#02223a" stop-opacity="1"></stop><stop offset="80%" stop-color="#02223a" stop-opacity="1"></stop></linearGradient></defs><defs><linearGradient id="grad2_0" x1="0%" y1="100%" x2="66.7%" y2="0%"><stop offset="20%" stop-color="#02223a" stop-opacity="1"></stop><stop offset="80%" stop-color="#02223a" stop-opacity="1"></stop></linearGradient></defs><g transform="translate(900, 600)"><path d="M-351.5 0C-353.9 -51.7 -356.2 -103.4 -324.8 -134.5C-293.3 -165.7 -228.1 -176.3 -185.3 -185.3C-142.4 -194.3 -122 -201.7 -94.9 -229.1C-67.8 -256.6 -33.9 -304.1 0 -351.5L0 0Z" fill="#01345e"></path></g><g transform="translate(0, 0)"><path d="M351.5 0C342.1 45 332.7 89.9 315 130.5C297.4 171.1 271.6 207.2 241.1 241.1C210.6 275 175.5 306.7 134.5 324.8C93.6 342.8 46.8 347.2 0 351.5L0 0Z" fill="#01345e"></path></g></svg>